####
#
# OBJ File Generated by Meshlab
#
####
# Object cube.obj
#
# Vertices: 44
# Faces: 44
#
####

vn 0.341586 0.341586 0.875579
vt 2.020000 2.020000
v 0.380000 0.380000 0.400000
vn 0.875579 0.341586 0.341586
vt 2.100000 2.020000
v 0.400000 0.380000 0.380000
vn 0.341586 0.875579 0.341586
vt 2.020000 2.100000
v 0.380000 0.400000 0.380000
vn -0.341586 0.875579 -0.341586
vt -1.020000 -1.020000
v -0.380000 0.400000 -0.380000
vn -0.875579 0.341586 0.341586
vt -1.100000 2.020000
v -0.400000 0.380000 0.380000
vn -0.341586 0.875579 0.341586
vt -1.020000 2.020000
v -0.380000 0.400000 0.380000
vn -0.341586 -0.341586 -0.875579
vt -1.020000 -1.020000
v -0.380000 -0.380000 -0.400000
vn -0.341586 -0.875579 -0.341586
vt -1.020000 -1.100000
v -0.380000 -0.400000 -0.380000
vn -0.875579 -0.341586 -0.341586
vt -1.100000 -1.020000
v -0.400000 -0.380000 -0.380000
vn 0.341586 -0.875579 0.341586
vt 2.020000 -1.100000
v 0.380000 -0.400000 0.380000
vn 0.875579 -0.341586 0.341586
vt 2.100000 -1.020000
v 0.400000 -0.380000 0.380000
vn 0.341586 -0.341586 0.875579
vt 2.020000 -1.020000
v 0.380000 -0.380000 0.400000
vn 0.341586 0.875579 -0.341586
vt 2.020000 2.100000
v 0.380000 0.400000 -0.380000
vn -0.341586 0.341586 -0.875579
vt -1.020000 2.020000
v -0.380000 0.380000 -0.400000
vn 0.875579 0.341586 -0.341586
vt 2.100000 -1.020000
v 0.400000 0.380000 -0.380000
vn -0.341586 -0.341586 0.875579
vt -1.020000 -1.020000
v -0.380000 -0.380000 0.400000
vn -0.341586 -0.875579 0.341586
vt -1.020000 -1.100000
v -0.380000 -0.400000 0.380000
vn 0.341586 -0.341586 -0.875579
vt 2.020000 -1.020000
v 0.380000 -0.380000 -0.400000
vn -0.875579 -0.341586 0.341586
vt -1.020000 2.020000
v -0.400000 -0.380000 0.380000
vn -0.875579 0.341586 -0.341586
vt 2.020000 -1.020000
v -0.400000 0.380000 -0.380000
vn -0.341586 0.341586 0.875579
vt -1.020000 2.020000
v -0.380000 0.380000 0.400000
vn 0.341586 0.341586 -0.875579
vt 2.020000 2.020000
v 0.380000 0.380000 -0.400000
vn 0.875579 -0.341586 -0.341586
vt -1.020000 -1.020000
v 0.400000 -0.380000 -0.380000
vn 0.341586 -0.875579 -0.341586
vt 2.020000 -1.020000
v 0.380000 -0.400000 -0.380000
vn -0.341586 0.875579 -0.341586
vt -1.020000 2.100000
v -0.380000 0.400000 -0.380000
vn 0.341586 0.875579 -0.341586
vt 2.020000 -1.020000
v 0.380000 0.400000 -0.380000
vn -0.875579 0.341586 0.341586
vt 2.020000 2.020000
v -0.400000 0.380000 0.380000
vn -0.341586 -0.875579 -0.341586
vt -1.020000 -1.020000
v -0.380000 -0.400000 -0.380000
vn -0.875579 -0.341586 0.341586
vt -1.100000 2.020000
v -0.400000 -0.380000 0.380000
vn -0.875579 -0.341586 0.341586
vt -1.100000 -1.020000
v -0.400000 -0.380000 0.380000
vn 0.341586 0.875579 0.341586
vt 2.020000 2.020000
v 0.380000 0.400000 0.380000
vn 0.875579 0.341586 -0.341586
vt 2.100000 2.020000
v 0.400000 0.380000 -0.380000
vn -0.875579 0.341586 -0.341586
vt -1.100000 -1.020000
v -0.400000 0.380000 -0.380000
vn -0.341586 0.875579 0.341586
vt -1.020000 2.100000
v -0.380000 0.400000 0.380000
vn 0.875579 0.341586 -0.341586
vt 2.020000 -1.020000
v 0.400000 0.380000 -0.380000
vn 0.875579 -0.341586 0.341586
vt -1.020000 2.020000
v 0.400000 -0.380000 0.380000
vn 0.875579 -0.341586 0.341586
vt 2.100000 2.020000
v 0.400000 -0.380000 0.380000
vn 0.341586 -0.875579 0.341586
vt 2.020000 2.020000
v 0.380000 -0.400000 0.380000
vn 0.875579 -0.341586 -0.341586
vt 2.100000 -1.020000
v 0.400000 -0.380000 -0.380000
vn 0.875579 0.341586 0.341586
vt 2.020000 2.020000
v 0.400000 0.380000 0.380000
vn -0.875579 -0.341586 -0.341586
vt -1.020000 -1.020000
v -0.400000 -0.380000 -0.380000
vn -0.875579 0.341586 -0.341586
vt -1.100000 2.020000
v -0.400000 0.380000 -0.380000
vn -0.341586 -0.875579 0.341586
vt -1.020000 2.020000
v -0.380000 -0.400000 0.380000
vn 0.341586 -0.875579 -0.341586
vt 2.020000 -1.100000
v 0.380000 -0.400000 -0.380000
# 44 vertices, 0 vertices normals


usemtl material_0
f 1/1/1 2/2/2 3/3/3
f 4/4/4 5/5/5 6/6/6
f 7/7/7 8/8/8 9/9/9
f 10/10/10 11/11/11 12/12/12
f 25/25/25 13/13/13 14/14/14
f 15/15/15 26/26/26 2/2/2
f 10/10/10 16/16/16 17/17/17
f 7/7/7 14/14/14 18/18/18
f 11/11/11 1/1/1 12/12/12
f 19/19/19 27/27/27 20/20/20
f 28/28/28 29/29/29 9/9/9
f 16/16/16 30/30/30 17/17/17
f 2/2/2 26/26/26 31/31/31
f 5/5/5 16/16/16 21/21/21
f 16/16/16 1/1/1 21/21/21
f 13/13/13 32/32/32 22/22/22
f 16/16/16 5/5/5 30/30/30
f 1/1/1 16/16/16 12/12/12
f 16/16/16 10/10/10 12/12/12
f 5/5/5 4/4/4 33/33/33
f 5/5/5 21/21/21 34/34/34
f 21/21/21 3/3/3 34/34/34
f 32/32/32 18/18/18 22/22/22
f 35/35/35 36/36/36 23/23/23
f 37/37/37 38/38/38 39/39/39
f 1/1/1 11/11/11 2/2/2
f 36/36/36 35/35/35 40/40/40
f 26/26/26 4/4/4 31/31/31
f 39/39/39 38/38/38 24/24/24
f 21/21/21 1/1/1 3/3/3
f 38/38/38 28/28/28 24/24/24
f 19/19/19 20/20/20 41/41/41
f 42/42/42 7/7/7 9/9/9
f 29/29/29 28/28/28 43/43/43
f 7/7/7 42/42/42 14/14/14
f 42/42/42 25/25/25 14/14/14
f 31/31/31 4/4/4 6/6/6
f 32/32/32 39/39/39 18/18/18
f 8/8/8 7/7/7 18/18/18
f 28/28/28 38/38/38 43/43/43
f 18/18/18 14/14/14 22/22/22
f 14/14/14 13/13/13 22/22/22
f 8/8/8 18/18/18 44/44/44
f 18/18/18 39/39/39 44/44/44
# 44 faces, 0 coords texture

# End of File
